# xmcd CD database file
#
# Track frame offsets:
#	150
#	34438
#	80257
#	124823
#	158436
#	187322
#
# Disc length: 2957 seconds
#
# Revision: 0
# Processed by: cddbd v1.5PL3 Copyright (c) Steve Scherf et al.
# Submitted via: CDex 1.51
#
DISCID=490b8b06
DTITLE=Various Artist - Acupuncture for Mind
DYEAR=2001
DGENRE=New Age
TTITLE0=Various Artist - Acupuncture For Mind - 01 - Spirit Of Heaven and Earth
TTITLE1=Various Artist - Acupuncture For Mind - 02 - Calming Your Mind
TTITLE2=Various Artist - Acupuncture For Mind - 03 - Moving Of Chi
TTITLE3=Various Artist - Acupuncture For Mind - 04 - Inspirations Between Us
TTITLE4=Various Artist - Acupuncture For Mind - 05 - Breaths Of Cells
TTITLE5=Various Artist - Acupuncture For Mind - 06 - Heart Of Balance
EXTD=YEAR: 2001
EXTT0=
EXTT1=
EXTT2=
EXTT3=
EXTT4=
EXTT5=
PLAYORDER=
